<svg xmlns="http://www.w3.org/2000/svg" viewBox="0 0 24 24" width="50" height="50">
  <circle cx="12" cy="12" r="10" fill="#85EA2D"/>
  <path fill="#000000" d="M12 5.5c-1.5 0-2.9.5-4.1 1.4-1.2.9-2.2 2.1-2.8 3.5-.6 1.5-.8 3.1-.4 4.7.4 1.6 1.3 3 2.5 4.1 1.2 1.1 2.7 1.8 4.3 2 .8.1 1.7.1 2.5 0 1.6-.2 3.1-.8 4.3-1.9s2.2-2.5 2.7-4.1c.5-1.6.6-3.3.2-5-.4-1.6-1.3-3-2.4-4.1C15 6 13.5 5.5 12 5.5zm0 2c.8 0 1.5.2 2.2.7s1.2 1.2 1.6 2 .6 1.5.6 2.3c0 1-.2 1.9-.6 2.6s-.9 1.3-1.6 1.7-1.4.5-2.2.5c-.8 0-1.5-.1-2.1-.5s-1.2-.9-1.6-1.6-.6-1.6-.6-2.5c0-.8.2-1.5.6-2.1.4-.6.9-1.1 1.5-1.5s1.4-.6 2.2-.6z"/>
</svg>
